<?xml version="1.0" encoding="utf-8"?>
<!-- Generator: Adobe Illustrator 25.3.1, SVG Export Plug-In . SVG Version: 6.00 Build 0)  -->
<svg version="1.1" id="レイヤー_1" xmlns="http://www.w3.org/2000/svg" xmlns:xlink="http://www.w3.org/1999/xlink" x="0px"
	 y="0px" viewBox="0 0 600 200" style="enable-background:new 0 0 600 200;" xml:space="preserve">
<style type="text/css">
	.st0{fill:#E8EAED;}
</style>
<path class="st0" d="M49.67,85.38c0,5.47-2.17,9.92-6.5,13.36c-4.33,3.44-9.78,5.16-16.36,5.16c-3.56,0-7.43-0.54-11.61-1.61
	c-4.18-1.07-7.62-2.5-10.32-4.29l-0.09-2.58c0-5.1,0.49-9.95,1.47-14.56h6.63l4.52,12.9c3.87,1.78,8.29,2.67,13.27,2.67
	c3.38-1.6,5.07-4.18,5.07-7.74c0-3.26-2-5.99-5.99-8.2l-13.82-7C8.63,69.32,4.98,64.07,4.98,57.74c0-5.34,2.21-9.71,6.63-13.09
	c4.42-3.38,10.11-5.07,17.05-5.07c6.14,0,12.22,1.11,18.25,3.32c0,6.51-0.52,12.13-1.57,16.86h-7.37l-2.67-10.32
	c-3.56-1.84-7.83-2.7-12.81-2.58c-2.83,1.78-4.24,4.27-4.24,7.46c0,1.84,0.81,3.52,2.44,5.02c1.63,1.51,4.94,3.4,9.95,5.67
	c5.01,2.27,8.69,4.22,11.06,5.85c2.36,1.63,4.29,3.63,5.76,5.99C48.93,79.22,49.67,82.07,49.67,85.38z"/>
<path class="st0" d="M111.87,40.87l0.09,2.67c0,6.33-0.52,11.92-1.57,16.77h-7.37l-1.38-11.61l-11.61-0.92v48.2l9.4,1.38l-0.09,4.7
	H67.18l-0.55-2.95c1.35-0.86,4.48-2.24,9.4-4.15V47.78l-11.7,0.92l-1.38,11.61h-7.37C54.52,55.46,54,49.87,54,43.55l0.09-2.67
	l29.03,0.37L111.87,40.87z"/>
<path class="st0" d="M143.48,39.58c8.78,0,16,3.06,21.66,9.17c5.65,6.11,8.48,14.05,8.48,23.82c0,9.4-2.75,16.97-8.25,22.72
	c-5.5,5.75-12.55,8.62-21.15,8.62c-8.85,0-16.1-2.92-21.75-8.76c-5.65-5.84-8.48-13.51-8.48-23.04c0-9.58,2.78-17.4,8.34-23.45
	C127.89,42.61,134.94,39.58,143.48,39.58z M135.55,48.98c-2.03,1.72-3.67,4.52-4.93,8.39c-1.26,3.87-1.89,8.23-1.89,13.09
	c0,7.43,1.47,13.52,4.42,18.25c2.95,4.73,7.16,7.1,12.62,7.1c1.41,0,3.16-0.28,5.25-0.83c2.33-1.84,4.21-4.76,5.62-8.75
	c1.41-3.99,2.12-8.45,2.12-13.36c0-7.43-1.51-13.48-4.52-18.15c-3.01-4.67-7-7-11.98-7C140.19,47.69,137.95,48.12,135.55,48.98z"/>
<path class="st0" d="M205.68,39.58c8.78,0,16,3.06,21.66,9.17c5.65,6.11,8.48,14.05,8.48,23.82c0,9.4-2.75,16.97-8.25,22.72
	c-5.5,5.75-12.55,8.62-21.15,8.62c-8.85,0-16.1-2.92-21.75-8.76c-5.65-5.84-8.48-13.51-8.48-23.04c0-9.58,2.78-17.4,8.34-23.45
	C190.09,42.61,197.14,39.58,205.68,39.58z M197.76,48.98c-2.03,1.72-3.67,4.52-4.93,8.39c-1.26,3.87-1.89,8.23-1.89,13.09
	c0,7.43,1.47,13.52,4.42,18.25c2.95,4.73,7.16,7.1,12.62,7.1c1.41,0,3.16-0.28,5.25-0.83c2.33-1.84,4.21-4.76,5.62-8.75
	c1.41-3.99,2.12-8.45,2.12-13.36c0-7.43-1.51-13.48-4.52-18.15c-3.01-4.67-7-7-11.98-7C202.39,47.69,200.15,48.12,197.76,48.98z"/>
<path class="st0" d="M261.06,80.22V95.8l11.06,1.57l-0.09,4.7h-31.88l-0.55-2.95c1.9-1.17,4.39-2.4,7.46-3.69V46.96l-6.82-0.83
	l0.09-4.7l29.77-0.74c7.13,0,12.88,1.89,17.28,5.67c4.39,3.78,6.59,8.56,6.59,14.33c0,5.47-2.09,10.04-6.27,13.73
	c-4.18,3.69-9.55,5.59-16.13,5.71L261.06,80.22z M261.06,49.26v22.76c2.46,0.49,4.82,0.74,7.1,0.74c3.75,0,6.57-1.18,8.48-3.55
	c1.9-2.36,2.86-5.27,2.86-8.71c0-2.64-0.49-5.16-1.47-7.56c-0.98-2.4-2.37-4.08-4.15-5.07L261.06,49.26z"/>
<path class="st0" d="M391.37,97.36l-0.09,4.7h-29.77l-0.55-2.95c1.78-1.17,4.39-2.43,7.83-3.78V75.89H344v20.27l8.48,1.2l-0.09,4.7
	h-29.67l-0.55-2.95c1.78-1.17,4.39-2.43,7.83-3.78v-48.2l-7.1-1.01l0.09-4.7h28.2l0.55,2.95c-2.27,1.35-4.85,2.61-7.74,3.78v19.81
	h24.79V47.14l-7.1-1.01l0.09-4.7h28.29l0.55,2.95c-1.97,1.23-4.58,2.49-7.83,3.78v48.01L391.37,97.36z"/>
<path class="st0" d="M460.67,97.36l-0.09,4.7h-29.03l-0.55-2.95c1.72-1.04,4.39-2.33,8.02-3.87l-3.87-9.95h-21.93l-4.05,10.87
	l8.48,1.2l-0.09,4.7h-25.07l-0.55-2.95c1.84-1.17,4.39-2.4,7.65-3.69l20.37-50.04l-1.11-2.86l12.07-3.32l23.22,57.23L460.67,97.36z
	 M432.47,78.29l-8.29-21.75l-8.29,21.75H432.47z"/>
<path class="st0" d="M539.83,44.37l-7,3.5l-15.48,54.28c-3.69,0.67-8.05,1.07-13.09,1.2l-9.86-32.44l-2.03,10.69l-6.36,20.55
	c-3.69,0.67-8.02,1.07-12.99,1.2l-17.32-56.31l-6.54-0.92l0.09-4.7h28.01l0.55,2.95c-1.78,1.11-4.3,2.34-7.56,3.69L479,80.41
	l0.74,12.26h0.46l10.14-35.11l-3.78-12.53l13.36-3.04l10.04,37.6l1.01,13.09h0.18l12.35-45.25l-8.94-1.29l0.09-4.7h24.6
	L539.83,44.37z"/>
<path class="st0" d="M590.97,80.04V95.7l-19.63,8.2l-2.76,0.09c-7.19,0-13.16-1.52-17.92-4.56c-4.76-3.04-8.23-6.93-10.41-11.66
	c-2.18-4.73-3.27-9.68-3.27-14.84c0-5.84,1.3-11.3,3.92-16.4c2.61-5.1,6.45-9.2,11.52-12.3c5.07-3.1,11.13-4.65,18.2-4.65
	c7.8,0,14.34,1.88,19.63,5.62l0.09,1.84c0,4.36-0.68,8.97-2.03,13.82h-8.39l-2.21-10.32c-4.67-1.97-9.55-2.95-14.65-2.95l-2.21,0.09
	c-3.19,2.27-5.59,5.5-7.19,9.68c-1.6,4.18-2.4,8.75-2.4,13.73c0,6.88,1.73,12.55,5.21,17c3.47,4.46,8,6.71,13.59,6.77
	c2.03,0.06,4.7-0.18,8.02-0.74V81.42c-3.26-1.17-6.33-2.55-9.22-4.15l0.55-3.13h28.48l0.09,4.42L590.97,80.04z"/>
<path class="st0" d="M145.06,147.73c2.59,0.48,4.6,1.5,6.02,3.07c1.42,1.57,2.12,3.4,2.12,5.48c0,2.76-1.19,4.98-3.56,6.66
	c-2.37,1.67-5.61,2.56-9.7,2.66h-17.71l-0.31-1.64c0.99-0.65,2.44-1.35,4.35-2.1v-26.88l-3.63-0.46l0.05-2.61
	c4.98-0.27,10.31-0.41,15.97-0.41c3.89,0,7.01,0.8,9.37,2.41c2.35,1.61,3.53,3.69,3.53,6.25c0,1.71-0.56,3.29-1.66,4.76
	C148.79,146.39,147.17,147.33,145.06,147.73z M134.05,136.27v10.09h2.35c2.42,0,4.24-0.52,5.45-1.56s1.82-2.31,1.82-3.81
	c0-1.23-0.38-2.38-1.15-3.46s-1.73-1.75-2.89-2.02L134.05,136.27z M138.15,161.66l0.87,0.05c1.91,0,3.38-0.55,4.4-1.64
	c1.02-1.09,1.54-2.39,1.54-3.89c0-1.74-0.62-3.24-1.87-4.5c-1.25-1.26-2.81-1.91-4.68-1.95h-4.35v11.52L138.15,161.66z"/>
<path class="st0" d="M191.95,162.99l-0.05,2.61h-16.13l-0.31-1.64c0.96-0.58,2.44-1.3,4.45-2.15l-2.15-5.53h-12.18l-2.25,6.04
	l4.71,0.67l-0.05,2.61h-13.93l-0.31-1.64c1.02-0.65,2.44-1.33,4.25-2.05l11.31-27.8l-0.62-1.59l6.71-1.84l12.9,31.79L191.95,162.99z
	 M176.29,152.39l-4.61-12.08l-4.61,12.08H176.29z"/>
<path class="st0" d="M226.56,162.99l-0.05,2.61h-10.24l-6.96-13.05l-4.25,0.05v9.73l4.61,0.67l-0.05,2.61h-16.38l-0.31-1.64
	c0.99-0.65,2.44-1.35,4.35-2.1v-26.88l-3.79-0.46l0.05-2.61l16.33-0.41c3.92,0,7.14,0.99,9.65,2.97c2.51,1.98,3.76,4.45,3.76,7.42
	c0,2.01-0.61,3.88-1.84,5.61c-1.23,1.72-2.9,3.03-5.02,3.92l6.86,11.16L226.56,162.99z M205.06,148.3c1.16,0.24,2.27,0.36,3.33,0.36
	c2.42,0,4.17-0.61,5.25-1.84c1.08-1.23,1.61-2.82,1.61-4.76c0-3-1.02-5.19-3.07-6.55l-7.12,0.77V148.3z"/>
<path class="st0" d="M251.49,147.73c2.59,0.48,4.6,1.5,6.02,3.07c1.42,1.57,2.12,3.4,2.12,5.48c0,2.76-1.19,4.98-3.56,6.66
	c-2.37,1.67-5.61,2.56-9.7,2.66h-17.71l-0.31-1.64c0.99-0.65,2.44-1.35,4.35-2.1v-26.88l-3.63-0.46l0.05-2.61
	c4.98-0.27,10.31-0.41,15.97-0.41c3.89,0,7.01,0.8,9.37,2.41c2.35,1.61,3.53,3.69,3.53,6.25c0,1.71-0.56,3.29-1.66,4.76
	C255.22,146.39,253.61,147.33,251.49,147.73z M240.49,136.27v10.09h2.35c2.42,0,4.24-0.52,5.45-1.56s1.82-2.31,1.82-3.81
	c0-1.23-0.38-2.38-1.15-3.46s-1.73-1.75-2.89-2.02L240.49,136.27z M244.58,161.66l0.87,0.05c1.91,0,3.38-0.55,4.4-1.64
	c1.02-1.09,1.54-2.39,1.54-3.89c0-1.74-0.62-3.24-1.87-4.5c-1.25-1.26-2.81-1.91-4.68-1.95h-4.35v11.52L244.58,161.66z"/>
<path class="st0" d="M290.25,155.41c0.07,3.34-0.14,6.74-0.61,10.19h-26.78l-0.31-1.64c0.99-0.65,2.44-1.35,4.35-2.1v-26.88
	l-3.79-0.46l0.05-2.61h26.72c0.17,2.8-0.1,6.04-0.82,9.73h-4.3l-0.87-5.07l-9.21-0.67v11.01l11.01-0.87v5.17l-11.01-0.46v10.6
	l9.57-0.67l1.69-5.58L290.25,155.41z"/>
<path class="st0" d="M327.77,162.99l-0.05,2.61h-10.24l-6.96-13.05l-4.25,0.05v9.73l4.61,0.67l-0.05,2.61h-16.38l-0.31-1.64
	c0.99-0.65,2.44-1.35,4.35-2.1v-26.88l-3.79-0.46l0.05-2.61l16.33-0.41c3.92,0,7.14,0.99,9.65,2.97c2.51,1.98,3.76,4.45,3.76,7.42
	c0,2.01-0.61,3.88-1.84,5.61c-1.23,1.72-2.9,3.03-5.02,3.92l6.86,11.16L327.77,162.99z M306.27,148.3c1.16,0.24,2.27,0.36,3.33,0.36
	c2.42,0,4.17-0.61,5.25-1.84c1.08-1.23,1.61-2.82,1.61-4.76c0-3-1.02-5.19-3.07-6.55l-7.12,0.77V148.3z"/>
<path class="st0" d="M369.39,156.33c0,3.04-1.2,5.51-3.61,7.42s-5.44,2.87-9.09,2.87c-1.98,0-4.13-0.3-6.45-0.9
	c-2.32-0.6-4.23-1.39-5.73-2.38l-0.05-1.43c0-2.83,0.27-5.53,0.82-8.09h3.69l2.51,7.17c2.15,0.99,4.61,1.48,7.37,1.48
	c1.88-0.89,2.82-2.32,2.82-4.3c0-1.81-1.11-3.33-3.33-4.56l-7.68-3.89c-4.06-2.32-6.09-5.24-6.09-8.75c0-2.97,1.23-5.39,3.69-7.27
	c2.46-1.88,5.61-2.82,9.47-2.82c3.41,0,6.79,0.61,10.14,1.84c0,3.62-0.29,6.74-0.87,9.37h-4.1l-1.48-5.73
	c-1.98-1.02-4.35-1.5-7.12-1.43c-1.57,0.99-2.36,2.37-2.36,4.15c0,1.02,0.45,1.95,1.36,2.79c0.9,0.84,2.75,1.89,5.53,3.15
	c2.78,1.26,4.83,2.35,6.14,3.25c1.31,0.9,2.38,2.01,3.2,3.33C368.98,152.91,369.39,154.49,369.39,156.33z"/>
<path class="st0" d="M411.17,162.99l-0.05,2.61h-16.54l-0.31-1.64c0.99-0.65,2.44-1.35,4.35-2.1v-10.8h-13.77v11.26l4.71,0.67
	l-0.05,2.61h-16.48l-0.31-1.64c0.99-0.65,2.44-1.35,4.35-2.1v-26.78l-3.94-0.56l0.05-2.61h15.67l0.31,1.64
	c-1.26,0.75-2.7,1.45-4.3,2.1v11.01h13.77v-11.57l-3.94-0.56l0.05-2.61h15.72l0.31,1.64c-1.09,0.68-2.54,1.38-4.35,2.1v26.67
	L411.17,162.99z"/>
<path class="st0" d="M429.6,130.89c4.88,0,8.89,1.7,12.03,5.09c3.14,3.4,4.71,7.81,4.71,13.23c0,5.22-1.53,9.43-4.58,12.62
	c-3.06,3.19-6.97,4.79-11.75,4.79c-4.92,0-8.94-1.62-12.08-4.86c-3.14-3.24-4.71-7.51-4.71-12.8c0-5.32,1.54-9.67,4.63-13.03
	C420.94,132.57,424.86,130.89,429.6,130.89z M425.2,136.11c-1.13,0.96-2.04,2.51-2.74,4.66c-0.7,2.15-1.05,4.57-1.05,7.27
	c0,4.13,0.82,7.51,2.46,10.14c1.64,2.63,3.98,3.94,7.01,3.94c0.79,0,1.76-0.15,2.92-0.46c1.3-1.02,2.34-2.64,3.12-4.86
	c0.78-2.22,1.18-4.69,1.18-7.42c0-4.13-0.84-7.49-2.51-10.09s-3.89-3.89-6.66-3.89C427.77,135.4,426.53,135.64,425.2,136.11z"/>
<path class="st0" d="M460.37,153.47v8.65l6.14,0.87l-0.05,2.61h-17.71l-0.31-1.64c1.06-0.65,2.44-1.33,4.15-2.05v-26.93l-3.79-0.46
	l0.05-2.61l16.54-0.41c3.96,0,7.16,1.05,9.6,3.15c2.44,2.1,3.66,4.75,3.66,7.96c0,3.04-1.16,5.58-3.48,7.63
	c-2.32,2.05-5.31,3.11-8.96,3.17L460.37,153.47z M460.37,136.27v12.65c1.37,0.27,2.68,0.41,3.94,0.41c2.08,0,3.65-0.66,4.71-1.97
	c1.06-1.31,1.59-2.93,1.59-4.84c0-1.47-0.27-2.87-0.82-4.2c-0.55-1.33-1.31-2.27-2.3-2.82L460.37,136.27z"/>
<g>
</g>
<g>
</g>
<g>
</g>
<g>
</g>
<g>
</g>
<g>
</g>
<g>
</g>
<g>
</g>
<g>
</g>
<g>
</g>
<g>
</g>
<g>
</g>
<g>
</g>
<g>
</g>
<g>
</g>
</svg>
